<svg width="69" height="68" viewBox="0 0 69 68" fill="none" xmlns="http://www.w3.org/2000/svg">
<mask id="mask0_1_1575" style="mask-type:luminance" maskUnits="userSpaceOnUse" x="0" y="0" width="69" height="68">
<path d="M0.985352 0H68.9854V68H0.985352V0Z" fill="white"/>
</mask>
<g mask="url(#mask0_1_1575)">
<path d="M5.60059 68C5.60059 55.3837 15.8281 45.1562 28.4443 45.1562C41.0606 45.1562 51.2881 55.3837 51.2881 68" stroke="#304049" stroke-width="2.8" stroke-miterlimit="10" stroke-linejoin="round"/>
<path d="M16.3584 32.8047C16.3584 25.9832 21.8884 20.4531 28.71 20.4531C35.5315 20.4531 41.0615 25.9832 41.0615 32.8047C41.0615 39.6262 35.5315 45.1562 28.71 45.1562C21.8884 45.1562 16.3584 39.6262 16.3584 32.8047Z" stroke="#304049" stroke-width="2.8" stroke-miterlimit="10" stroke-linecap="round" stroke-linejoin="round"/>
<path d="M68.0441 27.0814C63.6396 27.0814 57.9287 22.1284 57.9287 16.0642C57.9287 9.99998 63.6396 5.03452 68.0441 5.03452H68.2881V4.962C66.1343 3.48964 63.5298 2.6439 60.724 2.6439C53.3121 2.6439 47.3037 8.65233 47.3037 16.0642C47.3037 23.4759 53.3121 29.4844 60.724 29.4844C63.5274 29.4844 66.1353 28.6365 68.2881 27.1664V27.0814H68.0441Z" stroke="#304049" stroke-width="2.8" stroke-miterlimit="10"/>
</g>
</svg>
