<svg width="60" height="48" viewBox="0 0 60 48" fill="none" xmlns="http://www.w3.org/2000/svg">
<path d="M0 35.0486C0 26.6189 2.02505 19.376 6.07516 13.3197C10.167 7.26343 16.0543 2.82353 23.737 0L25.2401 2.88491V3.00767C17.8079 6.03581 13.1106 12.2762 11.1482 21.7289H13.3403C17.0146 21.7289 20.167 23.0588 22.7975 25.7187C25.4697 28.3376 26.8058 31.4066 26.8058 34.9258C26.8058 38.5269 25.4906 41.6164 22.8601 44.1944C20.2296 46.7315 17.0564 48 13.3403 48C9.66597 48 6.51357 46.7315 3.88309 44.1944C1.29436 41.6164 0 38.5678 0 35.0486ZM33.1942 35.0486C33.1942 26.6189 35.2192 19.376 39.2693 13.3197C43.3612 7.26343 49.2484 2.82353 56.9311 0L58.4969 2.88491V3.00767C51.0647 6.03581 46.3674 12.2762 44.405 21.7289H46.5344C50.2088 21.7289 53.3612 23.0588 55.9916 25.7187C58.6639 28.3376 60 31.4066 60 34.9258C60 38.5269 58.6848 41.6164 56.0543 44.1944C53.4238 46.7315 50.2505 48 46.5344 48C42.8601 48 39.7077 46.7315 37.0772 44.1944C34.4885 41.6164 33.1942 38.5678 33.1942 35.0486Z" fill="white"/>
</svg>
