<svg width="41" height="39" viewBox="0 0 41 39" fill="none" xmlns="http://www.w3.org/2000/svg">
<path d="M20.4251 0C17.2953 3.12684 17.2953 8.19448 20.4251 11.3183C23.5549 8.19149 23.5549 3.12385 20.4251 0Z" fill="#A04444"/>
<path d="M20.4251 0C17.2953 3.12684 17.2953 8.19448 20.4251 11.3183C23.5549 8.19149 23.5549 3.12385 20.4251 0Z" fill="#A04444"/>
<path d="M20.4247 14.7417C20.4247 14.7417 11.3561 5.48695 0 4.86996C0 4.86996 20.4247 16.3051 20.4247 38.6213C27.0261 32.0262 27.0261 21.3338 20.4247 14.7387V14.7417Z" fill="#A04444"/>
<path d="M26.0578 1.87789C25.1794 2.2972 24.379 3.13881 23.6715 4.15114C24.0612 6.47531 23.5425 8.92527 22.1125 10.92C23.4736 10.3659 25.3413 9.04208 26.4985 5.86432C28.0844 1.5095 30.8994 1.35076 30.8994 1.35076C30.8994 1.35076 28.7469 0.593011 26.0578 1.87789Z" fill="#A04444"/>
<path d="M14.3506 5.86424C15.5078 9.039 17.3755 10.3658 18.7366 10.9199C17.3066 8.92519 16.7849 6.47823 17.1776 4.15107C16.4701 3.13874 15.6697 2.29712 14.7913 1.87782C12.1022 0.592935 9.94969 1.35069 9.94969 1.35069C9.94969 1.35069 12.7647 1.50942 14.3506 5.86424Z" fill="#A04444"/>
<path d="M15.8022 23.3674C14.8339 28.2314 16.0211 33.4398 19.3697 37.4592C19.1869 32.0441 17.7479 27.3299 15.8022 23.3674Z" fill="#A04444"/>
<path d="M21.1742 14.0289C23.0898 15.9487 24.4778 18.198 25.3382 20.597C31.382 10.1712 40.8464 4.86996 40.8464 4.86996C31.409 5.38212 23.5575 11.8544 21.1712 14.0289H21.1742Z" fill="#A04444"/>
</svg>
