<svg width="1840" height="40" viewBox="0 0 1840 40" fill="none" xmlns="http://www.w3.org/2000/svg">
<path d="M1840 0H0V40H1840V0ZM32.8723 27.1467C32.8723 29.6 30.9074 31.5733 28.4646 31.5733H11.577C9.13415 31.5733 7.16924 29.6 7.16924 27.1467V14.6667C7.16924 12.2133 9.13415 10.24 11.577 10.24H28.4646C30.9074 10.24 32.8723 12.2133 32.8723 14.6667V27.1467ZM72.1173 27.1467C72.1173 29.6 70.1524 31.5733 67.7095 31.5733H50.822C48.3791 31.5733 46.4142 29.6 46.4142 27.1467V14.6667C46.4142 12.2133 48.3791 10.24 50.822 10.24H67.7095C70.1524 10.24 72.1173 12.2133 72.1173 14.6667V27.1467ZM111.415 27.1467C111.415 29.6 109.45 31.5733 107.008 31.5733H90.1201C87.6772 31.5733 85.7123 29.6 85.7123 27.1467V14.6667C85.7123 12.2133 87.6772 10.24 90.1201 10.24H107.008C109.45 10.24 111.415 12.2133 111.415 14.6667V27.1467ZM150.66 27.1467C150.66 29.6 148.695 31.5733 146.253 31.5733H129.365C126.922 31.5733 124.957 29.6 124.957 27.1467V14.6667C124.957 12.2133 126.922 10.24 129.365 10.24H146.253C148.695 10.24 150.66 12.2133 150.66 14.6667V27.1467ZM189.958 27.1467C189.958 29.6 187.994 31.5733 185.551 31.5733H168.663C166.22 31.5733 164.255 29.6 164.255 27.1467V14.6667C164.255 12.2133 166.22 10.24 168.663 10.24H185.551C187.994 10.24 189.958 12.2133 189.958 14.6667V27.1467ZM229.203 27.1467C229.203 29.6 227.239 31.5733 224.796 31.5733H207.908C205.465 31.5733 203.5 29.6 203.5 27.1467V14.6667C203.5 12.2133 205.465 10.24 207.908 10.24H224.796C227.239 10.24 229.203 12.2133 229.203 14.6667V27.1467ZM268.448 27.1467C268.448 29.6 266.483 31.5733 264.041 31.5733H247.153C244.71 31.5733 242.745 29.6 242.745 27.1467V14.6667C242.745 12.2133 244.71 10.24 247.153 10.24H264.041C266.483 10.24 268.448 12.2133 268.448 14.6667V27.1467ZM307.746 27.1467C307.746 29.6 305.782 31.5733 303.339 31.5733H286.451C284.008 31.5733 282.043 29.6 282.043 27.1467V14.6667C282.043 12.2133 284.008 10.24 286.451 10.24H303.339C305.782 10.24 307.746 12.2133 307.746 14.6667V27.1467ZM346.991 27.1467C346.991 29.6 345.027 31.5733 342.584 31.5733H325.696C323.253 31.5733 321.288 29.6 321.288 27.1467V14.6667C321.288 12.2133 323.253 10.24 325.696 10.24H342.584C345.027 10.24 346.991 12.2133 346.991 14.6667V27.1467ZM386.236 27.1467C386.236 29.6 384.272 31.5733 381.829 31.5733H364.941C362.498 31.5733 360.533 29.6 360.533 27.1467V14.6667C360.533 12.2133 362.498 10.24 364.941 10.24H381.829C384.272 10.24 386.236 12.2133 386.236 14.6667V27.1467ZM425.534 27.1467C425.534 29.6 423.57 31.5733 421.127 31.5733H404.239C401.796 31.5733 399.831 29.6 399.831 27.1467V14.6667C399.831 12.2133 401.796 10.24 404.239 10.24H421.127C423.57 10.24 425.534 12.2133 425.534 14.6667V27.1467ZM464.779 27.1467C464.779 29.6 462.815 31.5733 460.372 31.5733H443.484C441.041 31.5733 439.076 29.6 439.076 27.1467V14.6667C439.076 12.2133 441.041 10.24 443.484 10.24H460.372C462.815 10.24 464.779 12.2133 464.779 14.6667V27.1467ZM504.078 27.1467C504.078 29.6 502.113 31.5733 499.67 31.5733H482.782C480.339 31.5733 478.375 29.6 478.375 27.1467V14.6667C478.375 12.2133 480.339 10.24 482.782 10.24H499.67C502.113 10.24 504.078 12.2133 504.078 14.6667V27.1467ZM543.323 27.1467C543.323 29.6 541.358 31.5733 538.915 31.5733H522.027C519.584 31.5733 517.619 29.6 517.619 27.1467V14.6667C517.619 12.2133 519.584 10.24 522.027 10.24H538.915C541.358 10.24 543.323 12.2133 543.323 14.6667V27.1467ZM582.568 27.1467C582.568 29.6 580.603 31.5733 578.16 31.5733H561.272C558.829 31.5733 556.864 29.6 556.864 27.1467V14.6667C556.864 12.2133 558.829 10.24 561.272 10.24H578.16C580.603 10.24 582.568 12.2133 582.568 14.6667V27.1467ZM621.866 27.1467C621.866 29.6 619.901 31.5733 617.458 31.5733H600.57C598.127 31.5733 596.163 29.6 596.163 27.1467V14.6667C596.163 12.2133 598.127 10.24 600.57 10.24H617.458C619.901 10.24 621.866 12.2133 621.866 14.6667V27.1467ZM661.111 27.1467C661.111 29.6 659.146 31.5733 656.703 31.5733H639.815C637.372 31.5733 635.408 29.6 635.408 27.1467V14.6667C635.408 12.2133 637.372 10.24 639.815 10.24H656.703C659.146 10.24 661.111 12.2133 661.111 14.6667V27.1467ZM700.356 27.1467C700.356 29.6 698.391 31.5733 695.948 31.5733H679.06C676.617 31.5733 674.652 29.6 674.652 27.1467V14.6667C674.652 12.2133 676.617 10.24 679.06 10.24H695.948C698.391 10.24 700.356 12.2133 700.356 14.6667V27.1467ZM739.654 27.1467C739.654 29.6 737.689 31.5733 735.246 31.5733H718.358C715.915 31.5733 713.951 29.6 713.951 27.1467V14.6667C713.951 12.2133 715.915 10.24 718.358 10.24H735.246C737.689 10.24 739.654 12.2133 739.654 14.6667V27.1467ZM778.899 27.1467C778.899 29.6 776.934 31.5733 774.491 31.5733H757.603C755.16 31.5733 753.196 29.6 753.196 27.1467V14.6667C753.196 12.2133 755.16 10.24 757.603 10.24H774.491C776.934 10.24 778.899 12.2133 778.899 14.6667V27.1467ZM818.197 27.1467C818.197 29.6 816.232 31.5733 813.789 31.5733H796.901C794.458 31.5733 792.494 29.6 792.494 27.1467V14.6667C792.494 12.2133 794.458 10.24 796.901 10.24H813.789C816.232 10.24 818.197 12.2133 818.197 14.6667V27.1467ZM857.442 27.1467C857.442 29.6 855.477 31.5733 853.034 31.5733H836.146C833.703 31.5733 831.739 29.6 831.739 27.1467V14.6667C831.739 12.2133 833.703 10.24 836.146 10.24H853.034C855.477 10.24 857.442 12.2133 857.442 14.6667V27.1467ZM896.687 27.1467C896.687 29.6 894.722 31.5733 892.279 31.5733H875.391C872.948 31.5733 870.984 29.6 870.984 27.1467V14.6667C870.984 12.2133 872.948 10.24 875.391 10.24H892.279C894.722 10.24 896.687 12.2133 896.687 14.6667V27.1467ZM935.985 27.1467C935.985 29.6 934.02 31.5733 931.577 31.5733H914.689C912.247 31.5733 910.282 29.6 910.282 27.1467V14.6667C910.282 12.2133 912.247 10.24 914.689 10.24H931.577C934.02 10.24 935.985 12.2133 935.985 14.6667V27.1467ZM975.23 27.1467C975.23 29.6 973.265 31.5733 970.822 31.5733H953.934C951.492 31.5733 949.527 29.6 949.527 27.1467V14.6667C949.527 12.2133 951.492 10.24 953.934 10.24H970.822C973.265 10.24 975.23 12.2133 975.23 14.6667V27.1467ZM1014.47 27.1467C1014.47 29.6 1012.51 31.5733 1010.07 31.5733H993.179C990.737 31.5733 988.772 29.6 988.772 27.1467V14.6667C988.772 12.2133 990.737 10.24 993.179 10.24H1010.07C1012.51 10.24 1014.47 12.2133 1014.47 14.6667V27.1467ZM1053.77 27.1467C1053.77 29.6 1051.81 31.5733 1049.36 31.5733H1032.48C1030.03 31.5733 1028.07 29.6 1028.07 27.1467V14.6667C1028.07 12.2133 1030.03 10.24 1032.48 10.24H1049.36C1051.81 10.24 1053.77 12.2133 1053.77 14.6667V27.1467ZM1093.02 27.1467C1093.02 29.6 1091.05 31.5733 1088.61 31.5733H1071.72C1069.28 31.5733 1067.31 29.6 1067.31 27.1467V14.6667C1067.31 12.2133 1069.28 10.24 1071.72 10.24H1088.61C1091.05 10.24 1093.02 12.2133 1093.02 14.6667V27.1467ZM1132.32 27.1467C1132.32 29.6 1130.35 31.5733 1127.91 31.5733H1111.02C1108.58 31.5733 1106.61 29.6 1106.61 27.1467V14.6667C1106.61 12.2133 1108.58 10.24 1111.02 10.24H1127.91C1130.35 10.24 1132.32 12.2133 1132.32 14.6667V27.1467ZM1171.56 27.1467C1171.56 29.6 1169.6 31.5733 1167.15 31.5733H1150.27C1147.82 31.5733 1145.86 29.6 1145.86 27.1467V14.6667C1145.86 12.2133 1147.82 10.24 1150.27 10.24H1167.15C1169.6 10.24 1171.56 12.2133 1171.56 14.6667V27.1467ZM1210.81 27.1467C1210.81 29.6 1208.84 31.5733 1206.4 31.5733H1189.51C1187.07 31.5733 1185.1 29.6 1185.1 27.1467V14.6667C1185.1 12.2133 1187.07 10.24 1189.51 10.24H1206.4C1208.84 10.24 1210.81 12.2133 1210.81 14.6667V27.1467ZM1250.1 27.1467C1250.1 29.6 1248.14 31.5733 1245.7 31.5733H1228.81C1226.37 31.5733 1224.4 29.6 1224.4 27.1467V14.6667C1224.4 12.2133 1226.37 10.24 1228.81 10.24H1245.7C1248.14 10.24 1250.1 12.2133 1250.1 14.6667V27.1467ZM1289.35 27.1467C1289.35 29.6 1287.38 31.5733 1284.94 31.5733H1268.05C1265.61 31.5733 1263.65 29.6 1263.65 27.1467V14.6667C1263.65 12.2133 1265.61 10.24 1268.05 10.24H1284.94C1287.38 10.24 1289.35 12.2133 1289.35 14.6667V27.1467ZM1328.59 27.1467C1328.59 29.6 1326.63 31.5733 1324.19 31.5733H1307.3C1304.86 31.5733 1302.89 29.6 1302.89 27.1467V14.6667C1302.89 12.2133 1304.86 10.24 1307.3 10.24H1324.19C1326.63 10.24 1328.59 12.2133 1328.59 14.6667V27.1467ZM1367.89 27.1467C1367.89 29.6 1365.93 31.5733 1363.48 31.5733H1346.6C1344.15 31.5733 1342.19 29.6 1342.19 27.1467V14.6667C1342.19 12.2133 1344.15 10.24 1346.6 10.24H1363.48C1365.93 10.24 1367.89 12.2133 1367.89 14.6667V27.1467ZM1407.14 27.1467C1407.14 29.6 1405.17 31.5733 1402.73 31.5733H1385.84C1383.4 31.5733 1381.43 29.6 1381.43 27.1467V14.6667C1381.43 12.2133 1383.4 10.24 1385.84 10.24H1402.73C1405.17 10.24 1407.14 12.2133 1407.14 14.6667V27.1467ZM1446.43 27.1467C1446.43 29.6 1444.47 31.5733 1442.03 31.5733H1425.14C1422.7 31.5733 1420.73 29.6 1420.73 27.1467V14.6667C1420.73 12.2133 1422.7 10.24 1425.14 10.24H1442.03C1444.47 10.24 1446.43 12.2133 1446.43 14.6667V27.1467ZM1485.68 27.1467C1485.68 29.6 1483.71 31.5733 1481.27 31.5733H1464.38C1461.94 31.5733 1459.98 29.6 1459.98 27.1467V14.6667C1459.98 12.2133 1461.94 10.24 1464.38 10.24H1481.27C1483.71 10.24 1485.68 12.2133 1485.68 14.6667V27.1467ZM1524.92 27.1467C1524.92 29.6 1522.96 31.5733 1520.52 31.5733H1503.63C1501.19 31.5733 1499.22 29.6 1499.22 27.1467V14.6667C1499.22 12.2133 1501.19 10.24 1503.63 10.24H1520.52C1522.96 10.24 1524.92 12.2133 1524.92 14.6667V27.1467ZM1564.22 27.1467C1564.22 29.6 1562.26 31.5733 1559.82 31.5733H1542.93C1540.48 31.5733 1538.52 29.6 1538.52 27.1467V14.6667C1538.52 12.2133 1540.48 10.24 1542.93 10.24H1559.82C1562.26 10.24 1564.22 12.2133 1564.22 14.6667V27.1467ZM1603.47 27.1467C1603.47 29.6 1601.5 31.5733 1599.06 31.5733H1582.17C1579.73 31.5733 1577.76 29.6 1577.76 27.1467V14.6667C1577.76 12.2133 1579.73 10.24 1582.17 10.24H1599.06C1601.5 10.24 1603.47 12.2133 1603.47 14.6667V27.1467ZM1642.71 27.1467C1642.71 29.6 1640.75 31.5733 1638.31 31.5733H1621.42C1618.97 31.5733 1617.01 29.6 1617.01 27.1467V14.6667C1617.01 12.2133 1618.97 10.24 1621.42 10.24H1638.31C1640.75 10.24 1642.71 12.2133 1642.71 14.6667V27.1467ZM1682.01 27.1467C1682.01 29.6 1680.05 31.5733 1677.6 31.5733H1660.72C1658.27 31.5733 1656.31 29.6 1656.31 27.1467V14.6667C1656.31 12.2133 1658.27 10.24 1660.72 10.24H1677.6C1680.05 10.24 1682.01 12.2133 1682.01 14.6667V27.1467ZM1721.26 27.1467C1721.26 29.6 1719.29 31.5733 1716.85 31.5733H1699.96C1697.52 31.5733 1695.55 29.6 1695.55 27.1467V14.6667C1695.55 12.2133 1697.52 10.24 1699.96 10.24H1716.85C1719.29 10.24 1721.26 12.2133 1721.26 14.6667V27.1467ZM1760.55 27.1467C1760.55 29.6 1758.59 31.5733 1756.15 31.5733H1739.26C1736.82 31.5733 1734.85 29.6 1734.85 27.1467V14.6667C1734.85 12.2133 1736.82 10.24 1739.26 10.24H1756.15C1758.59 10.24 1760.55 12.2133 1760.55 14.6667V27.1467ZM1799.8 27.1467C1799.8 29.6 1797.83 31.5733 1795.39 31.5733H1778.5C1776.06 31.5733 1774.1 29.6 1774.1 27.1467V14.6667C1774.1 12.2133 1776.06 10.24 1778.5 10.24H1795.39C1797.83 10.24 1799.8 12.2133 1799.8 14.6667V27.1467ZM1834.64 31.6267H1817.75C1815.31 31.6267 1813.34 29.6533 1813.34 27.2V14.6667C1813.34 12.2133 1815.31 10.24 1817.75 10.24H1834.64C1837.08 10.24 1839.04 12.2133 1839.04 14.6667V27.1467C1839.04 29.6 1837.08 31.6267 1834.64 31.6267Z" fill="#0A0909" fill-opacity="0.5"/>
</svg>
