<svg width="24" height="24" viewBox="0 0 24 24" fill="none" xmlns="http://www.w3.org/2000/svg">
<g clip-path="url(#clip0_332_2589)">
<path d="M12 24C13.5759 24 15.1363 23.6896 16.5922 23.0866C18.0481 22.4835 19.371 21.5996 20.4853 20.4853C21.5996 19.371 22.4835 18.0481 23.0866 16.5922C23.6896 15.1363 24 13.5759 24 12C24 10.4241 23.6896 8.86371 23.0866 7.4078C22.4835 5.95189 21.5996 4.62902 20.4853 3.51472C19.371 2.40042 18.0481 1.5165 16.5922 0.913445C15.1363 0.310389 13.5759 -2.34822e-08 12 0C8.8174 4.74244e-08 5.76516 1.26428 3.51472 3.51472C1.26428 5.76515 0 8.8174 0 12C0 15.1826 1.26428 18.2348 3.51472 20.4853C5.76516 22.7357 8.8174 24 12 24Z" fill="#0B53BF"/>
<path d="M14.16 3.26721V4.81255C15.7037 5.28013 17.0562 6.23167 18.0177 7.52669C18.9792 8.82172 19.4989 10.3916 19.5 12.0045C19.4989 13.6175 18.9792 15.1874 18.0177 16.4824C17.0562 17.7774 15.7037 18.729 14.16 19.1965V20.7432C16.1138 20.2626 17.8498 19.1402 19.09 17.5558C20.3301 15.9714 21.0027 14.0166 21 12.0045C21.0024 9.99272 20.3297 8.03826 19.0896 6.45412C17.8494 4.86998 16.1136 3.74778 14.16 3.26721ZM4.50001 12.0045C4.5011 10.3916 5.02077 8.82172 5.98231 7.52669C6.94386 6.23167 8.29631 5.28013 9.84001 4.81255V3.26721C7.88642 3.74778 6.15058 4.86998 4.91044 6.45412C3.6703 8.03826 2.99758 9.99272 3.00001 12.0045C2.99758 14.0164 3.6703 15.9708 4.91044 17.555C6.15058 19.1391 7.88642 20.2613 9.84001 20.7419V19.1965C8.29519 18.7308 6.94154 17.7798 5.97969 16.4843C5.01783 15.1889 4.49897 13.618 4.50001 12.0045Z" fill="white"/>
<path d="M15.2253 13.6774C15.2253 10.6094 10.4173 11.8694 10.4173 10.1747C10.4173 9.5667 10.9053 9.17737 11.8347 9.17737C12.9453 9.17737 13.328 9.71737 13.448 10.444H14.9773C14.8413 9.0787 14.0573 8.21737 12.7507 7.96003V6.7547H11.2507V7.91737C9.81732 8.10003 8.91732 8.93337 8.91732 10.1747C8.91732 13.2574 13.732 12.1014 13.732 13.7667C13.732 14.396 13.1253 14.816 12.0973 14.816C10.7547 14.816 10.312 14.224 10.148 13.4067H8.65332C8.75065 14.9027 9.67199 15.8374 11.2493 16.072V17.2534H12.7493V16.0867C14.2867 15.888 15.2253 14.9934 15.2253 13.6774Z" fill="white"/>
</g>
<defs>
<clipPath id="clip0_332_2589">
<rect width="24" height="24" fill="white"/>
</clipPath>
</defs>
</svg>
