<svg width="136" height="43" viewBox="0 0 136 43" fill="none" xmlns="http://www.w3.org/2000/svg">
<path d="M48.8613 1.62866H51.8583L58.1543 13.3908L64.4252 1.62866H66.8933C66.1881 2.3476 65.8356 3.32569 65.8356 4.56293V18.9584H63.6445V4.73848L57.701 15.8736H56.9959L51.0524 4.7134V18.9584H50.2716V3.25881C50.0534 2.48971 49.5833 1.94633 48.8613 1.62866Z" fill="#304049"/>
<path d="M72.9627 1.62866V18.9584H70.7969V4.46261C70.7969 3.32569 70.4611 2.56495 69.7895 2.1804C69.7895 2.1804 70.8472 1.99649 72.9627 1.62866Z" fill="#304049"/>
<path d="M75.5315 1.62866H79.1077L90.6421 15.4975V1.62866H91.4228V18.9584C91.4228 18.9584 91.171 18.9584 90.6673 18.9584L90.2895 18.4819C89.853 17.9468 85.9075 13.2152 78.4529 4.28706V18.9584H77.6722V3.35913C76.9334 2.43956 76.2199 1.86273 75.5315 1.62866Z" fill="#304049"/>
<path d="M106.785 10.0302C106.785 7.77306 106.248 5.94228 105.173 4.53785C104.116 3.11669 102.596 2.40612 100.615 2.40612H97.2908V18.1809H100.615C102.563 18.1809 104.074 17.3951 105.148 15.8235C106.24 14.2519 106.785 12.3208 106.785 10.0302ZM109.052 10.0302C109.052 12.9059 108.321 15.1129 106.861 16.6511C105.417 18.1893 103.335 18.9584 100.615 18.9584H94.1679C94.7891 18.323 95.0997 17.3784 95.0997 16.1244V4.41245C95.0997 3.14177 94.7891 2.21384 94.1679 1.62866H100.615C103.301 1.62866 105.375 2.33924 106.836 3.76039C108.313 5.18155 109.052 7.27148 109.052 10.0302Z" fill="#304049"/>
<path d="M109.278 1.62866H112.376L117.892 11.1337L123.407 1.62866H124.314L118.244 12.0867V18.9584H116.053V12.0867C112.997 6.78661 111.276 3.81055 110.89 3.15849C110.42 2.33924 109.883 1.8293 109.278 1.62866Z" fill="#304049"/>
<path d="M58.6328 41.6199C60.0432 41.6199 61.21 41.3524 62.1335 40.8174C63.0737 40.2824 63.8376 39.4213 64.4252 38.2342H65.2563L65.1304 38.485C63.8208 41.0598 61.655 42.3472 58.6328 42.3472C55.9129 42.3472 53.6631 41.5447 51.8834 39.9396C50.1205 38.3178 49.2391 36.1694 49.2391 33.4943C49.2391 32.1066 49.4825 30.8359 49.9694 29.6822C50.4731 28.5286 51.1615 27.5756 52.0346 26.8232C53.7807 25.3185 55.9633 24.5661 58.5825 24.5661C60.614 24.5661 62.2594 25.0175 63.5186 25.9204C64.1398 26.3551 64.6099 26.865 64.9289 27.4502C65.2647 28.0354 65.4242 28.562 65.4074 29.0302C65.3906 29.5819 65.1388 29.933 64.6519 30.0835C64.1818 30.2173 63.6613 30.1671 63.0905 29.933L63.1408 29.7826C63.5942 28.2276 63.3759 27.0907 62.486 26.3718C61.613 25.6361 60.3118 25.2683 58.5825 25.2683C56.5341 25.2683 54.914 25.9622 53.7219 27.3499C53.2014 27.9685 52.7649 28.8379 52.4123 29.9581C52.0765 31.0616 51.9086 32.2403 51.9086 33.4943C51.9086 35.9688 52.4795 37.9416 53.6212 39.413C54.7796 40.8843 56.4502 41.6199 58.6328 41.6199Z" fill="#304049"/>
<path d="M80.6187 27.375C79.4938 25.9705 78.0499 25.2683 76.287 25.2683C74.5241 25.2683 73.0886 25.9705 71.9805 27.375C70.8053 28.8797 70.2176 30.8944 70.2176 33.419C70.2176 35.9938 70.8053 38.0336 71.9805 39.5384C73.0718 40.9261 74.5074 41.6199 76.287 41.6199C78.0667 41.6199 79.5106 40.9261 80.6187 39.5384C81.8108 38.0503 82.4068 36.0106 82.4068 33.419C82.4068 30.8777 81.8108 28.863 80.6187 27.375ZM84.9505 33.419C84.9505 36.0941 84.1529 38.251 82.5579 39.8895C80.9797 41.528 78.8894 42.3472 76.287 42.3472C73.7015 42.3472 71.6196 41.5363 70.0413 39.9145C68.4631 38.276 67.674 36.1109 67.674 33.419C67.674 30.7606 68.4631 28.6206 70.0413 26.9988C71.6363 25.377 73.7182 24.5661 76.287 24.5661C78.8726 24.5661 80.9629 25.377 82.5579 26.9988C84.1529 28.6206 84.9505 30.7606 84.9505 33.419Z" fill="#304049"/>
<path d="M92.9087 27.4753L89.2822 36.0273H96.5856C94.4198 30.9947 93.1941 28.144 92.9087 27.4753ZM90.8184 24.7416H94.0924L101.547 42.0714H99.1544L99.1292 41.971C98.189 39.7641 97.4587 38.042 96.9382 36.8047H88.9548L86.7385 42.0714H85.9075L92.4554 26.5473C91.9853 25.8284 91.4396 25.2265 90.8184 24.7416Z" fill="#304049"/>
<path d="M111.923 41.6199C113.333 41.6199 114.5 41.3524 115.423 40.8174C116.364 40.2824 117.128 39.4213 117.715 38.2342H118.546L118.42 38.485C117.111 41.0598 114.945 42.3472 111.923 42.3472C109.203 42.3472 106.953 41.5447 105.173 39.9396C103.411 38.3178 102.529 36.1694 102.529 33.4943C102.529 32.1066 102.773 30.8359 103.259 29.6822C103.763 28.5286 104.452 27.5756 105.325 26.8232C107.071 25.3185 109.253 24.5661 111.872 24.5661C113.904 24.5661 115.549 25.0175 116.809 25.9204C117.43 26.3551 117.9 26.865 118.219 27.4502C118.555 28.0354 118.714 28.562 118.697 29.0302C118.681 29.5819 118.429 29.933 117.942 30.0835C117.472 30.2173 116.951 30.1671 116.38 29.933L116.431 29.7826C116.884 28.2276 116.666 27.0907 115.776 26.3718C114.903 25.6361 113.602 25.2683 111.872 25.2683C109.824 25.2683 108.204 25.9622 107.012 27.3499C106.491 27.9685 106.055 28.8379 105.702 29.9581C105.367 31.0616 105.199 32.2403 105.199 33.4943C105.199 35.9688 105.769 37.9416 106.911 39.413C108.07 40.8843 109.74 41.6199 111.923 41.6199Z" fill="#304049"/>
<path d="M124.389 24.7416V32.9927H133.808V27.5756C133.808 26.4387 133.472 25.6779 132.801 25.2934L135.999 24.7416V42.0714H133.808V33.7701H124.389V42.0714H122.223V27.5756C122.223 26.4387 121.887 25.6779 121.216 25.2934C121.216 25.2934 122.274 25.1095 124.389 24.7416Z" fill="#304049"/>
<path d="M22.3961 0C18.9643 3.42851 18.9643 8.98505 22.3961 12.4103C25.8279 8.98177 25.8279 3.42522 22.3961 0Z" fill="#304049"/>
<path d="M22.3961 0C18.9643 3.42851 18.9643 8.98505 22.3961 12.4103C25.8279 8.98177 25.8279 3.42522 22.3961 0Z" fill="#304049"/>
<path d="M22.3952 16.1639C22.3952 16.1639 12.4516 6.01635 0 5.33984C0 5.33984 22.3952 17.8782 22.3952 42.3474C29.6335 35.116 29.6335 23.392 22.3952 16.1607V16.1639Z" fill="#304049"/>
<path d="M28.572 2.05911C27.6088 2.51887 26.7312 3.44168 25.9554 4.55168C26.3827 7.10007 25.8141 9.78639 24.2461 11.9735C25.7385 11.366 27.7863 9.91446 29.0552 6.43013C30.7941 1.65518 33.8807 1.48113 33.8807 1.48113C33.8807 1.48113 31.5205 0.650272 28.572 2.05911Z" fill="#304049"/>
<path d="M15.7357 6.42989C17.0045 9.91094 19.0524 11.3658 20.5447 11.9733C18.9768 9.78614 18.4048 7.10311 18.8354 4.55143C18.0597 3.44144 17.182 2.51863 16.2189 2.05887C13.2703 0.650028 10.9102 1.48088 10.9102 1.48088C10.9102 1.48088 13.9968 1.65494 15.7357 6.42989Z" fill="#304049"/>
<path d="M17.3264 25.6218C16.2647 30.9551 17.5664 36.666 21.2381 41.0731C21.0376 35.1356 19.4598 29.9666 17.3264 25.6218Z" fill="#304049"/>
<path d="M23.2162 15.3823C25.3167 17.4874 26.8386 19.9537 27.782 22.5842C34.4089 11.1525 44.7863 5.33984 44.7863 5.33984C34.4384 5.90141 25.8294 12.9982 23.2129 15.3823H23.2162Z" fill="#304049"/>
</svg>
