<svg width="261" height="82" viewBox="0 0 261 82" fill="none" xmlns="http://www.w3.org/2000/svg">
<path d="M93.7725 3.52148H99.524L111.607 26.0944L123.642 3.52148H128.378C127.025 4.90121 126.348 6.77828 126.348 9.15269V36.7793H122.143V9.4896L110.737 30.8593H109.384L97.9774 9.44147V36.7793H96.4791V6.64993C96.0602 5.17395 95.158 4.13113 93.7725 3.52148Z" fill="white"/>
<path d="M140.026 3.52148V36.7793H135.869V8.96017C135.869 6.77828 135.225 5.31834 133.936 4.58034C133.936 4.58034 135.966 4.22739 140.026 3.52148Z" fill="white"/>
<path d="M144.956 3.52148H151.819L173.955 30.1373V3.52148H175.453V36.7793C175.453 36.7793 174.97 36.7793 174.003 36.7793L173.278 35.8648C172.44 34.838 164.868 25.7575 150.562 8.62326V36.7793H149.064V6.84245C147.646 5.07769 146.277 3.9707 144.956 3.52148Z" fill="white"/>
<path d="M204.935 19.645C204.935 15.3133 203.904 11.7998 201.842 9.10456C199.812 6.37719 196.896 5.01351 193.094 5.01351H186.714V35.2872H193.094C196.832 35.2872 199.732 33.7792 201.794 30.763C203.888 27.7469 204.935 24.0409 204.935 19.645ZM209.285 19.645C209.285 25.1639 207.884 29.3993 205.08 32.3513C202.309 35.3033 198.314 36.7793 193.094 36.7793H180.721C181.913 35.56 182.509 33.7471 182.509 31.3406V8.86391C182.509 6.42532 181.913 4.64452 180.721 3.52148H193.094C198.25 3.52148 202.229 4.88517 205.032 7.61253C207.868 10.3399 209.285 14.3507 209.285 19.645Z" fill="white"/>
<path d="M209.72 3.52148H215.665L226.25 21.7627L236.834 3.52148H238.574L226.926 23.5917V36.7793H222.721V23.5917C216.857 13.4202 213.555 7.70879 212.813 6.45741C211.911 4.88517 210.88 3.90652 209.72 3.52148Z" fill="white"/>
<path d="M112.525 80.2695C115.232 80.2695 117.471 79.7561 119.243 78.7293C121.048 77.7025 122.514 76.0501 123.642 73.7719H125.236L124.995 74.2532C122.482 79.1946 118.325 81.6652 112.525 81.6652C107.305 81.6652 102.988 80.1251 99.5723 77.0448C96.1891 73.9324 94.4975 69.8092 94.4975 64.6754C94.4975 62.0122 94.9647 59.5736 95.8991 57.3596C96.8658 55.1456 98.1868 53.3167 99.8623 51.8728C103.213 48.985 107.402 47.5411 112.429 47.5411C116.327 47.5411 119.485 48.4075 121.902 50.1401C123.094 50.9744 123.996 51.953 124.608 53.0761C125.253 54.1991 125.559 55.2098 125.526 56.1082C125.494 57.1671 125.011 57.8409 124.076 58.1297C123.174 58.3864 122.175 58.2901 121.08 57.8409L121.177 57.5521C122.047 54.5681 121.628 52.3862 119.92 51.0065C118.244 49.5947 115.747 48.8888 112.429 48.8888C108.498 48.8888 105.388 50.2203 103.101 52.8835C102.102 54.0707 101.264 55.7393 100.587 57.8891C99.9429 60.0068 99.6207 62.2689 99.6207 64.6754C99.6207 69.4242 100.716 73.2104 102.907 76.034C105.13 78.8577 108.336 80.2695 112.525 80.2695Z" fill="white"/>
<path d="M154.719 52.9317C152.56 50.2364 149.789 48.8888 146.406 48.8888C143.023 48.8888 140.268 50.2364 138.141 52.9317C135.886 55.8195 134.758 59.6859 134.758 64.531C134.758 69.4723 135.886 73.3869 138.141 76.2747C140.235 78.9379 142.99 80.2695 146.406 80.2695C149.821 80.2695 152.592 78.9379 154.719 76.2747C157.006 73.419 158.15 69.5044 158.15 64.531C158.15 59.6538 157.006 55.7874 154.719 52.9317ZM163.032 64.531C163.032 69.6648 161.501 73.804 158.44 76.9485C155.412 80.093 151.4 81.6652 146.406 81.6652C141.444 81.6652 137.448 80.109 134.419 76.9966C131.391 73.8521 129.876 69.6969 129.876 64.531C129.876 59.4292 131.391 55.3221 134.419 52.2097C137.48 49.0973 141.476 47.5411 146.406 47.5411C151.368 47.5411 155.379 49.0973 158.44 52.2097C161.501 55.3221 163.032 59.4292 163.032 64.531Z" fill="white"/>
<path d="M178.305 53.1242L171.345 69.5365H185.361C181.205 59.8784 178.852 54.4077 178.305 53.1242ZM174.293 47.878H180.576L194.882 81.1358H190.291L190.243 80.9433C188.438 76.7079 187.037 73.4029 186.038 71.0285H170.717L166.463 81.1358H164.868L177.435 51.3434C176.532 49.9637 175.485 48.8085 174.293 47.878Z" fill="white"/>
<path d="M214.795 80.2695C217.502 80.2695 219.741 79.7561 221.513 78.7293C223.318 77.7025 224.784 76.0501 225.911 73.7719H227.506L227.265 74.2532C224.751 79.1946 220.595 81.6652 214.795 81.6652C209.575 81.6652 205.258 80.1251 201.842 77.0448C198.459 73.9324 196.767 69.8092 196.767 64.6754C196.767 62.0122 197.235 59.5736 198.169 57.3596C199.136 55.1456 200.457 53.3167 202.132 51.8728C205.483 48.985 209.672 47.5411 214.698 47.5411C218.597 47.5411 221.755 48.4075 224.171 50.1401C225.364 50.9744 226.266 51.953 226.878 53.0761C227.522 54.1991 227.829 55.2098 227.796 56.1082C227.764 57.1671 227.281 57.8409 226.346 58.1297C225.444 58.3864 224.445 58.2901 223.35 57.8409L223.446 57.5521C224.316 54.5681 223.898 52.3862 222.19 51.0065C220.514 49.5947 218.017 48.8888 214.698 48.8888C210.767 48.8888 207.658 50.2203 205.37 52.8835C204.372 54.0707 203.534 55.7393 202.857 57.8891C202.213 60.0068 201.891 62.2689 201.891 64.6754C201.891 69.4242 202.986 73.2104 205.177 76.034C207.4 78.8577 210.606 80.2695 214.795 80.2695Z" fill="white"/>
<path d="M238.719 47.878V63.7128H256.795V53.3167C256.795 51.1348 256.151 49.6749 254.862 48.9369L261 47.878V81.1358H256.795V65.2048H238.719V81.1358H234.563V53.3167C234.563 51.1348 233.918 49.6749 232.629 48.9369C232.629 48.9369 234.659 48.5839 238.719 47.878Z" fill="white"/>
<path d="M42.9793 0.395508C36.3934 6.97522 36.3934 17.6389 42.9793 24.2123C49.5653 17.6326 49.5653 6.96892 42.9793 0.395508Z" fill="white"/>
<path d="M42.9793 0.395508C36.3934 6.97522 36.3934 17.6389 42.9793 24.2123C49.5653 17.6326 49.5653 6.96892 42.9793 0.395508Z" fill="white"/>
<path d="M42.9791 31.4153C42.9791 31.4153 23.8962 11.9409 0 10.6426C0 10.6426 42.9791 34.7052 42.9791 81.6644C56.8702 67.7865 56.8702 45.2869 42.9791 31.409V31.4153Z" fill="#FFFCFB"/>
<path d="M54.8332 4.34574C52.9849 5.22808 51.3005 6.99905 49.8118 9.12927C50.6319 14.0199 49.5405 19.1753 46.5314 23.3727C49.3954 22.2068 53.3255 19.4211 55.7606 12.7342C59.0977 3.57055 65.0213 3.23652 65.0213 3.23652C65.0213 3.23652 60.4919 1.64201 54.8332 4.34574Z" fill="#FFFCFB"/>
<path d="M30.1979 12.7342C32.633 19.4148 36.5631 22.2068 39.4271 23.3727C36.418 19.1753 35.3203 14.0262 36.1467 9.12927C34.658 6.99905 32.9736 5.22808 31.1253 4.34574C25.4666 1.64201 20.9372 3.23652 20.9372 3.23652C20.9372 3.23652 26.8608 3.57055 30.1979 12.7342Z" fill="#FFFCFB"/>
<path d="M33.2527 49.5664C31.215 59.8015 33.7132 70.7614 40.7596 79.2192C40.3748 67.8245 37.3468 57.9045 33.2527 49.5664Z" fill="white"/>
<path d="M44.5566 29.9153C48.5877 33.9552 51.5084 38.6883 53.319 43.7365C66.0367 21.7978 85.9523 10.6426 85.9523 10.6426C66.0934 11.7203 49.5718 25.3398 44.5503 29.9153H44.5566Z" fill="white"/>
</svg>
