<svg width="136" height="43" viewBox="0 0 136 43" fill="none" xmlns="http://www.w3.org/2000/svg">
<path d="M48.8622 1.62875H51.8591L58.1552 13.3909L64.4261 1.62875H66.8942C66.189 2.34768 65.8364 3.32577 65.8364 4.56301V18.9585H63.6454V4.73856L57.7019 15.8737H56.9967L51.0532 4.71349V18.9585H50.2725V3.25889C50.0543 2.4898 49.5841 1.94642 48.8622 1.62875Z" fill="white"/>
<path d="M72.9636 1.62875V18.9585H70.7977V4.46269C70.7977 3.32577 70.4619 2.56504 69.7904 2.18049C69.7904 2.18049 70.8481 1.99657 72.9636 1.62875Z" fill="white"/>
<path d="M75.5324 1.62875H79.1086L90.643 15.4975V1.62875H91.4237V18.9585C91.4237 18.9585 91.1718 18.9585 90.6682 18.9585L90.2904 18.482C89.8539 17.9469 85.9083 13.2153 78.4538 4.28714V18.9585H77.6731V3.35921C76.9343 2.43964 76.2208 1.86282 75.5324 1.62875Z" fill="white"/>
<path d="M106.786 10.0303C106.786 7.77315 106.249 5.94237 105.174 4.53793C104.117 3.11678 102.597 2.4062 100.616 2.4062H97.2916V18.181H100.616C102.564 18.181 104.075 17.3952 105.149 15.8236C106.24 14.2519 106.786 12.3208 106.786 10.0303ZM109.053 10.0303C109.053 12.906 108.322 15.113 106.862 16.6512C105.418 18.1894 103.336 18.9585 100.616 18.9585H94.1688C94.79 18.3231 95.1006 17.3785 95.1006 16.1245V4.41254C95.1006 3.14186 94.79 2.21393 94.1688 1.62875H100.616C103.302 1.62875 105.376 2.33932 106.836 3.76048C108.314 5.18163 109.053 7.27156 109.053 10.0303Z" fill="white"/>
<path d="M109.279 1.62875H112.377L117.892 11.1338L123.408 1.62875H124.314L118.245 12.0868V18.9585H116.054V12.0868C112.998 6.7867 111.277 3.81064 110.891 3.15858C110.421 2.33932 109.884 1.82938 109.279 1.62875Z" fill="white"/>
<path d="M58.6337 41.62C60.044 41.62 61.2109 41.3525 62.1343 40.8175C63.0745 40.2825 63.8385 39.4214 64.4261 38.2343H65.2572L65.1313 38.4851C63.8217 41.0599 61.6558 42.3473 58.6337 42.3473C55.9138 42.3473 53.664 41.5448 51.8843 39.9397C50.1214 38.3179 49.24 36.1695 49.24 33.4944C49.24 32.1066 49.4834 30.836 49.9703 29.6823C50.474 28.5287 51.1624 27.5757 52.0354 26.8233C53.7815 25.3185 55.9642 24.5662 58.5833 24.5662C60.6149 24.5662 62.2603 25.0176 63.5195 25.9204C64.1407 26.3551 64.6108 26.8651 64.9298 27.4503C65.2656 28.0355 65.4251 28.5621 65.4083 29.0303C65.3915 29.582 65.1397 29.9331 64.6528 30.0836C64.1827 30.2173 63.6622 30.1672 63.0913 29.9331L63.1417 29.7826C63.595 28.2277 63.3768 27.0908 62.4869 26.3719C61.6139 25.6362 60.3127 25.2684 58.5833 25.2684C56.535 25.2684 54.9148 25.9622 53.7228 27.35C53.2023 27.9686 52.7658 28.838 52.4132 29.9582C52.0774 31.0617 51.9095 32.2404 51.9095 33.4944C51.9095 35.9688 52.4803 37.9417 53.622 39.413C54.7805 40.8844 56.4511 41.62 58.6337 41.62Z" fill="white"/>
<path d="M80.6196 27.375C79.4947 25.9706 78.0508 25.2684 76.2879 25.2684C74.525 25.2684 73.0895 25.9706 71.9814 27.375C70.8061 28.8798 70.2185 30.8945 70.2185 33.4191C70.2185 35.9939 70.8061 38.0337 71.9814 39.5384C73.0727 40.9262 74.5082 41.62 76.2879 41.62C78.0676 41.62 79.5115 40.9262 80.6196 39.5384C81.8117 38.0504 82.4077 36.0106 82.4077 33.4191C82.4077 30.8778 81.8117 28.8631 80.6196 27.375ZM84.9513 33.4191C84.9513 36.0942 84.1538 38.251 82.5588 39.8895C80.9806 41.5281 78.8903 42.3473 76.2879 42.3473C73.7023 42.3473 71.6204 41.5364 70.0422 39.9146C68.464 38.2761 67.6749 36.111 67.6749 33.4191C67.6749 30.7607 68.464 28.6206 70.0422 26.9988C71.6372 25.3771 73.7191 24.5662 76.2879 24.5662C78.8735 24.5662 80.9638 25.3771 82.5588 26.9988C84.1538 28.6206 84.9513 30.7607 84.9513 33.4191Z" fill="white"/>
<path d="M92.9096 27.4754L89.283 36.0274H96.5865C94.4206 30.9948 93.195 28.1441 92.9096 27.4754ZM90.8193 24.7417H94.0932L101.548 42.0714H99.1553L99.1301 41.9711C98.1899 39.7642 97.4595 38.042 96.9391 36.8048H88.9556L86.7394 42.0714H85.9083L92.4562 26.5474C91.9861 25.8285 91.4405 25.2266 90.8193 24.7417Z" fill="white"/>
<path d="M111.924 41.62C113.334 41.62 114.501 41.3525 115.424 40.8175C116.365 40.2825 117.128 39.4214 117.716 38.2343H118.547L118.421 38.4851C117.112 41.0599 114.946 42.3473 111.924 42.3473C109.204 42.3473 106.954 41.5448 105.174 39.9397C103.411 38.3179 102.53 36.1695 102.53 33.4944C102.53 32.1066 102.773 30.836 103.26 29.6823C103.764 28.5287 104.452 27.5757 105.325 26.8233C107.072 25.3185 109.254 24.5662 111.873 24.5662C113.905 24.5662 115.55 25.0176 116.809 25.9204C117.431 26.3551 117.901 26.8651 118.22 27.4503C118.556 28.0355 118.715 28.5621 118.698 29.0303C118.682 29.582 118.43 29.9331 117.943 30.0836C117.473 30.2173 116.952 30.1672 116.381 29.9331L116.432 29.7826C116.885 28.2277 116.667 27.0908 115.777 26.3719C114.904 25.6362 113.603 25.2684 111.873 25.2684C109.825 25.2684 108.205 25.9622 107.013 27.35C106.492 27.9686 106.056 28.838 105.703 29.9582C105.367 31.0617 105.2 32.2404 105.2 33.4944C105.2 35.9688 105.77 37.9417 106.912 39.413C108.071 40.8844 109.741 41.62 111.924 41.62Z" fill="white"/>
<path d="M124.39 24.7417V32.9928H133.809V27.5757C133.809 26.4387 133.473 25.678 132.802 25.2935L136 24.7417V42.0714H133.809V33.7702H124.39V42.0714H122.224V27.5757C122.224 26.4387 121.888 25.678 121.217 25.2935C121.217 25.2935 122.274 25.1095 124.39 24.7417Z" fill="white"/>
<path d="M22.3956 0C18.9639 3.42851 18.9639 8.98505 22.3956 12.4103C25.8274 8.98177 25.8274 3.42522 22.3956 0Z" fill="white"/>
<path d="M22.3956 0C18.9639 3.42851 18.9639 8.98505 22.3956 12.4103C25.8274 8.98177 25.8274 3.42522 22.3956 0Z" fill="white"/>
<path d="M22.3952 16.1639C22.3952 16.1639 12.4516 6.0163 0 5.3398C0 5.3398 22.3952 17.8781 22.3952 42.3473C29.6335 35.1159 29.6335 23.392 22.3952 16.1606V16.1639Z" fill="#FFFCFB"/>
<path d="M28.5717 2.05907C27.6086 2.51883 26.7309 3.44163 25.9552 4.55163C26.3825 7.10002 25.8138 9.78634 24.2459 11.9735C25.7382 11.366 27.7861 9.91442 29.0549 6.43008C30.7938 1.65513 33.8804 1.48108 33.8804 1.48108C33.8804 1.48108 31.5203 0.650227 28.5717 2.05907Z" fill="#FFFCFB"/>
<path d="M15.7351 6.42999C17.0039 9.91104 19.0518 11.3659 20.5442 11.9734C18.9762 9.78625 18.4042 7.10321 18.8349 4.55154C18.0591 3.44154 17.1814 2.51874 16.2183 2.05898C13.2698 0.650135 10.9096 1.48099 10.9096 1.48099C10.9096 1.48099 13.9962 1.65504 15.7351 6.42999Z" fill="#FFFCFB"/>
<path d="M17.3267 25.6218C16.265 30.9551 17.5667 36.666 21.2384 41.0731C21.0379 35.1356 19.4601 29.9666 17.3267 25.6218Z" fill="white"/>
<path d="M23.2169 15.3823C25.3174 17.4874 26.8394 19.9536 27.7828 22.5841C34.4096 11.1525 44.7871 5.3398 44.7871 5.3398C34.4392 5.90136 25.8302 12.9981 23.2137 15.3823H23.2169Z" fill="white"/>
</svg>
