<svg width="61" height="58" viewBox="0 0 61 58" fill="none" xmlns="http://www.w3.org/2000/svg">
<path d="M30.49 0C25.8179 4.66765 25.8179 12.2325 30.49 16.8957C35.162 12.228 35.162 4.66318 30.49 0Z" fill="#304049"/>
<path d="M30.49 0C25.8179 4.66765 25.8179 12.2325 30.49 16.8957C35.162 12.228 35.162 4.66318 30.49 0Z" fill="#304049"/>
<path d="M30.4894 22.0059C30.4894 22.0059 16.952 8.19075 0 7.26974C0 7.26974 30.4894 24.3398 30.4894 57.6527C40.3438 47.8077 40.3438 31.8465 30.4894 22.0015V22.0059Z" fill="#304049"/>
<path d="M38.8983 2.80326C37.5871 3.42919 36.3922 4.68553 35.336 6.1967C35.9178 9.66615 35.1436 13.3234 33.0089 16.301C35.0407 15.4739 37.8287 13.4977 39.5561 8.75408C41.9235 2.25334 46.1257 2.01638 46.1257 2.01638C46.1257 2.01638 42.9125 0.885231 38.8983 2.80326Z" fill="#304049"/>
<path d="M21.4222 8.75395C23.1496 13.4931 25.9376 15.4738 27.9694 16.3009C25.8347 13.3232 25.056 9.6705 25.6423 6.19658C24.5861 4.6854 23.3913 3.42907 22.08 2.80314C18.0658 0.885109 14.8526 2.01626 14.8526 2.01626C14.8526 2.01626 19.0548 2.25322 21.4222 8.75395Z" fill="#304049"/>
<path d="M23.5891 34.8822C22.1436 42.143 23.9158 49.918 28.9146 55.918C28.6416 47.8345 26.4935 40.7973 23.5891 34.8822Z" fill="#304049"/>
<path d="M31.6081 20.9419C34.4678 23.8077 36.5398 27.1654 37.8242 30.7466C46.8461 15.1833 60.9743 7.26974 60.9743 7.26974C46.8864 8.03427 35.1659 17.696 31.6037 20.9419H31.6081Z" fill="#304049"/>
</svg>
